<svg width="332" height="306" viewBox="0 0 332 306" fill="none" xmlns="http://www.w3.org/2000/svg">
<rect width="332" height="306" rx="5" fill="#4A5D1A"/>
<path d="M263.396 176.822C263.396 239.048 242.825 259 172.437 259C151.506 259 140.311 254.979 122.889 247.071C102.778 237.943 74.9104 239.118 61.9162 227.631C45.2636 212.91 63.9153 189.909 63.9153 167.544C63.9153 139.436 44.655 112.618 63.9164 92.8777C75.4713 81.0371 82.7369 55.9155 98.8997 49.1381C115.432 42.2104 144.369 35 163.871 35C193.268 35 230.221 51.4708 238.397 74.4806C243.835 89.785 256.577 85.4121 271.5 103.5C298.488 136.194 263.396 164.213 263.396 176.822Z" fill="#FFFCF8"/>
<path d="M203.43 152C203.43 175.47 177.8 198 155.43 198C133.06 198 122.43 179.47 122.43 156C122.43 132.53 141.06 109 163.43 109C185.8 109 203.43 128.53 203.43 152Z" fill="#FCA458"/>
<path d="M184.962 134.251C186.925 137.579 186.113 140.595 182.448 142.774C178.784 144.954 175.853 144.176 173.89 140.848C171.928 137.52 173.32 133.045 176.985 130.865C180.649 128.686 182.999 130.923 184.962 134.251Z" fill="white"/>
</svg>
