<svg width="48" height="48" viewBox="0 0 48 48" fill="none" xmlns="http://www.w3.org/2000/svg">
<rect width="48" height="48" rx="5" fill="#4A5D1A"/>
<path d="M41.6385 21.4901C32.0963 30.0391 37.9517 44.6273 23.1952 39.2657C-3.7591 35.6862 9.97548 21.4901 9.97548 21.4901C8.38513 7.84302 17.5659 -0.941357 27.9032 11.294C42.7217 8.86272 43.8071 16.5489 41.6385 21.4901Z" fill="#FFFCF8"/>
<path d="M28.715 24.5096C28.715 27.9122 24.7011 30.7452 21.5072 30.7452C18.3133 30.7452 16.916 27.9122 16.916 24.5096C16.916 21.107 19.6731 17.7256 22.867 17.7256C26.0609 17.7256 30.307 17.7256 28.715 24.5096Z" fill="#FCA558"/>
<path d="M26.024 21.4122C26.024 21.9753 25.8734 22.4318 25.2583 22.4318C24.6432 22.4318 24.1445 21.9753 24.1445 21.4122C24.1445 20.8491 24.6432 20.3926 25.2583 20.3926C25.8734 20.3926 26.024 20.8491 26.024 21.4122Z" fill="white"/>
</svg>
